<svg width="19" height="19" viewBox="0 0 19 19" fill="none" xmlns="http://www.w3.org/2000/svg">
<path d="M16.531 4.43774C16.1416 4.43774 15.761 4.32228 15.4372 4.10595C15.1135 3.88962 14.8611 3.58214 14.7121 3.2224C14.5631 2.86266 14.5241 2.46681 14.6001 2.08491C14.6761 1.70301 14.8636 1.35221 15.1389 1.07688C15.4142 0.801544 15.765 0.614039 16.1469 0.538074C16.5288 0.462109 16.9247 0.501097 17.2844 0.650107C17.6442 0.799117 17.9516 1.05146 18.168 1.37522C18.3843 1.69898 18.4998 2.07961 18.4998 2.46899C18.5003 2.72769 18.4498 2.98395 18.351 3.22306C18.2523 3.46217 18.1073 3.67943 17.9244 3.86235C17.7415 4.04528 17.5242 4.19027 17.2851 4.28902C17.046 4.38776 16.7897 4.4383 16.531 4.43774ZM8 5.74978C9.0384 5.74978 10.0535 6.0577 10.9169 6.6346C11.7803 7.2115 12.4532 8.03148 12.8506 8.99083C13.248 9.95019 13.3519 11.0058 13.1494 12.0243C12.9468 13.0427 12.4467 13.9782 11.7125 14.7125C10.9782 15.4467 10.0427 15.9468 9.02427 16.1494C8.00583 16.3519 6.95018 16.248 5.99083 15.8506C5.03147 15.4532 4.2115 14.7803 3.63459 13.9169C3.05769 13.0535 2.74977 12.0384 2.74977 11C2.75126 9.60802 3.30488 8.27347 4.28917 7.28918C5.27346 6.30489 6.60801 5.75127 8 5.74978ZM8 3.12501C6.44248 3.12501 4.91993 3.58687 3.62489 4.45219C2.32985 5.3175 1.32049 6.54741 0.724452 7.98638C0.128412 9.42535 -0.0275392 11.0087 0.276319 12.5363C0.580178 14.0639 1.3302 15.4671 2.43154 16.5685C3.53288 17.6698 4.93607 18.4198 6.46367 18.7237C7.99127 19.0276 9.57467 18.8716 11.0136 18.2756C12.4526 17.6795 13.6825 16.6702 14.5478 15.3751C15.4131 14.0801 15.875 12.5575 15.875 11C15.875 8.91143 15.0453 6.90839 13.5685 5.43154C12.0916 3.9547 10.0886 3.12501 8 3.12501Z" fill="black"/>
</svg>
